<svg width="157" height="157" viewBox="0 0 157 157" fill="none" xmlns="http://www.w3.org/2000/svg">
<g filter="url(#filter0_d_98_62)">
<rect x="31" y="31" width="95" height="95" rx="20" fill="#13D4FF"/>
</g>
<g clip-path="url(#clip0_98_62)">
<path fill-rule="evenodd" clip-rule="evenodd" d="M75.7963 94.8638H76.9961V97.911H75.7963C73.4214 97.911 73.4214 94.8638 75.7963 94.8638ZM81.1954 91.8166H79.9956V88.7695H81.1954C83.5703 88.7695 83.5703 91.8166 81.1954 91.8166ZM72.7968 82.6751H76.9961V85.7223H72.7968C70.4219 85.7223 70.4219 82.6751 72.7968 82.6751ZM73.9966 56.2663V56.8757C73.9966 58.6717 75.5616 60.4975 76.9961 60.837V66.5251C76.7986 66.3907 76.7619 66.3265 76.554 66.1617C72.6073 63.0332 67.2027 58.2902 63.2255 63.7085C60.8012 67.0112 60.4864 70.3868 54.8013 73.2304C54.0496 73.6064 53.0001 73.8207 53.0001 75.0572C53.0001 75.4903 53.1442 75.8686 53.3718 76.1016C53.5557 76.2899 53.9675 76.5808 54.2999 76.5808C57.825 76.5808 58.7754 76.8649 61.8988 75.159C62.4977 74.8319 63.8823 73.7293 64.3267 73.2578C67.2423 70.165 67.0154 67.4068 68.7861 67.4721C69.553 67.5004 70.1972 68.0738 70.1972 68.9629C70.1972 69.9575 68.6765 72.4034 68.1186 73.2502C67.3747 74.3793 66.8114 74.8862 65.9231 75.7937C65.7072 76.0142 65.2163 76.4169 65.0981 76.5808C66.0329 76.5808 66.9681 76.5769 67.9028 76.586C68.6411 76.5931 68.5391 76.6154 68.9256 76.2031C69.1704 75.942 69.4004 75.7473 69.6131 75.4795C71.4425 73.1773 70.7942 72.2008 71.1651 71.3682C71.8218 69.8943 74.2223 70.4132 73.9594 72.3698C73.5991 75.0507 73.4793 74.6947 72.4969 76.5809H76.9961V79.628H72.197C70.1053 79.628 67.9977 81.7692 67.9977 83.8941V84.5035C67.9977 86.6285 70.1053 88.7696 72.197 88.7696H76.9961V91.8167H75.1965C73.1048 91.8167 70.9971 93.9578 70.9971 96.0828V96.6922C70.9971 98.8172 73.1048 100.958 75.1965 100.958H76.9961V102.685C76.9961 104.439 79.9956 104.439 79.9956 102.685V100.958H81.6953C83.4216 100.958 83.4216 97.9111 81.6953 97.9111H79.9956V94.8639H81.7953C83.887 94.8639 85.9946 92.7228 85.9946 90.5979V89.9885C85.9946 87.8635 83.887 85.7224 81.7953 85.7224H79.9956V82.6752H84.7948C86.2427 82.6752 88.1314 81.3836 88.3942 80.2375C87.9774 79.9539 87.5152 79.6337 87.117 79.3005C86.6718 78.9279 86.3615 78.6252 85.8946 78.3076C85.6965 79.1716 85.2352 79.6281 84.1949 79.6281H79.9956V76.5809H84.4949C83.5125 74.6948 83.3926 75.0507 83.0324 72.3699C82.7694 70.4132 85.1699 69.8943 85.8266 71.3683C86.3694 72.5863 85.2817 73.2331 88.0662 76.2032C88.4526 76.6155 88.3507 76.5932 89.089 76.5861C90.0237 76.577 90.9588 76.5809 91.8937 76.5809C91.7723 76.4126 91.3336 76.065 91.1186 75.8447C89.6106 74.3 88.7195 73.3061 87.6931 71.3005C87.4651 70.8549 86.7946 69.5421 86.7946 68.963C86.7946 67.5589 88.8098 66.4974 89.7928 68.7611C90.3005 69.9301 91.1333 71.4948 91.9701 72.4404L93.4185 73.9146C93.907 74.3873 94.4959 74.833 95.093 75.1591C95.7284 75.5062 96.3011 75.8308 97.0638 76.1026C98.9209 76.7646 100.726 76.5809 102.692 76.5809C103.797 76.5809 104.573 74.7875 103.455 73.8763C102.664 73.2325 100.007 72.8031 97.0768 69.0808C95.0701 66.5314 93.5104 61.345 90.094 61.345C87.5342 61.345 86.3127 62.1825 84.1903 63.4733C83.804 63.7082 83.452 63.9323 83.0955 64.1894L79.9957 66.5252V60.8371C81.4302 60.4976 82.9952 58.6718 82.9952 56.8758V56.2664C82.9952 54.1415 80.8876 52.0004 78.7958 52.0004H78.196C76.1043 52.0004 73.9967 54.1415 73.9967 56.2664L73.9966 56.2663Z" fill="white"/>
</g>
<defs>
<filter id="filter0_d_98_62" x="0" y="0" width="157" height="157" filterUnits="userSpaceOnUse" color-interpolation-filters="sRGB">
<feFlood flood-opacity="0" result="BackgroundImageFix"/>
<feColorMatrix in="SourceAlpha" type="matrix" values="0 0 0 0 0 0 0 0 0 0 0 0 0 0 0 0 0 0 127 0" result="hardAlpha"/>
<feMorphology radius="7" operator="dilate" in="SourceAlpha" result="effect1_dropShadow_98_62"/>
<feOffset/>
<feGaussianBlur stdDeviation="12"/>
<feColorMatrix type="matrix" values="0 0 0 0 0.972549 0 0 0 0 0.972549 0 0 0 0 0.972549 0 0 0 0.3 0"/>
<feBlend mode="normal" in2="BackgroundImageFix" result="effect1_dropShadow_98_62"/>
<feBlend mode="normal" in="SourceGraphic" in2="effect1_dropShadow_98_62" result="shape"/>
</filter>
<clipPath id="clip0_98_62">
<rect width="51" height="52" fill="white" transform="translate(53 52)"/>
</clipPath>
</defs>
</svg>
