<svg width="157" height="157" viewBox="0 0 157 157" fill="none" xmlns="http://www.w3.org/2000/svg">
<g filter="url(#filter0_d_98_60)">
<rect x="31" y="31" width="95" height="95" rx="20" fill="#13D4FF"/>
</g>
<path fill-rule="evenodd" clip-rule="evenodd" d="M64.2735 93.0657C64.2735 93.3403 67.2185 95.9428 67.6017 96.257L74.9664 102.029C76.234 102.987 77.4306 104 79.6093 104C79.4084 103.242 76.1098 100.776 75.9047 99.8516C75.7565 99.1829 76.4468 98.4882 77.1115 98.6374C77.7536 98.7816 80.5467 101.826 81.209 102.493C81.6066 102.893 82.0424 103.591 82.7578 103.591C83.1996 103.591 83.6634 103.453 83.9047 103.212C84.2134 102.905 84.2881 102.534 84.4843 102.161L80.8534 98.5584C80.4246 98.1269 79.2876 97.1808 79.1547 96.5816C78.9815 95.8002 80.0065 94.7838 81.0096 95.7443L86.4704 101.189C87.2405 101.517 88.3759 101.188 88.9531 100.321C88.8184 99.8138 84.0465 95.2262 83.3417 94.522C82.8542 94.0349 82.6562 94.0089 82.6562 93.2701C82.6562 92.6162 83.1523 92.3503 83.7734 92.3503C84.3287 92.3503 85.0617 93.289 85.6269 93.8576C86.2235 94.4579 90.519 98.9927 90.8828 98.9927C91.9048 98.9927 92.4062 98.6698 92.4062 97.6642C92.4062 95.7012 86.942 91.4957 84.8467 89.8398L79.7109 85.6058C79.126 85.763 78.7641 86.2717 77.9573 86.3961C76.8933 86.5602 77.6222 86.1525 76.6037 87.1802C76.5408 87.2437 76.4673 87.3048 76.391 87.375C75.5597 88.1401 74.4417 88.9781 72.9062 88.9781C71.3071 88.9781 69.0469 88.2853 69.0469 86.4233C69.0469 82.5393 71.7118 80.9396 71.9922 79.8832H67.7266C66.819 83.8029 66.3389 86.0048 65.2461 89.8546C65.0804 90.4387 64.2735 92.7216 64.2735 93.0657H64.2735Z" fill="white"/>
<path fill-rule="evenodd" clip-rule="evenodd" d="M89.7656 78.5547L93.5865 88.0971C94.4799 90.8425 95.2264 92.6426 96.0985 95.6864C96.2722 96.2929 96.4183 97.4598 97.6875 97.4598H103.68C104.348 97.4598 105 97.1016 105 96.438V76.5109C105 75.3548 103.605 75.5912 102.664 75.5912C100.187 75.5912 97.6257 75.92 95.4951 76.3487C93.7688 76.6961 92.4608 77.0458 90.8661 77.6182C90.3652 77.798 90.0273 78.1615 89.7656 78.5547Z" fill="white"/>
<path fill-rule="evenodd" clip-rule="evenodd" d="M53 74.4671V94.292C53 94.7971 53.4121 95.2117 53.9141 95.2117H60.7188C61.1322 95.2117 61.4619 94.9697 61.6196 94.6875L62.6358 91.2135C62.8805 90.4437 63.0644 89.7114 63.2932 88.9115C63.9665 86.5583 64.6256 84.2795 65.1447 81.8839C65.494 80.2723 66.0001 78.1585 66.0001 76.511C66.0001 76.1433 65.8824 76.0176 65.6575 75.8338C63.8185 74.3316 60.3324 73.9696 57.9861 73.7424L54.0891 73.3704C53.4651 73.3362 53.0001 73.9872 53.0001 74.4672L53 74.4671Z" fill="white"/>
<path fill-rule="evenodd" clip-rule="evenodd" d="M71.3829 85.8101C71.3829 86.991 74.0508 87.4193 75.5761 85.3286C76.5476 83.9968 76.2807 84.6803 77.6822 84.1776C78.184 83.9977 79.573 83.2554 80.0156 83.2554C81.3428 83.2554 81.3782 83.7608 82.0768 84.3493L92.2793 93.1934C92.847 93.7646 93.5809 94.7091 93.9297 94.8028C93.8921 94.3486 92.1388 89.4932 91.9571 89.0211C91.137 86.8901 90.1714 84.0211 89.2244 81.9605C88.5682 80.5323 88.402 80.973 85.4413 79.84C80.5811 77.98 78.9205 76.3354 74.4551 80.8284C73.7363 81.5517 73.1613 82.0584 72.5799 82.927C72.1336 83.5939 71.3829 84.7681 71.3829 85.8101V85.8101Z" fill="white"/>
<path fill-rule="evenodd" clip-rule="evenodd" d="M70.6719 58.3358C70.6719 59.0756 72.0066 60.068 72.8346 61.0648C74.3087 62.8392 74.3968 61.5776 73.9795 64.423C73.9008 64.9589 73.8625 65.3148 73.7904 65.8678C73.641 67.0147 73.2358 68.2482 74.5312 68.2482C75.0815 68.2482 78.7119 66.2127 79.1355 66.1541L82.5551 67.7369C83.2774 68.104 83.3253 68.2482 84.0781 68.2482C85.5401 68.2482 83.9109 63.1748 84.0781 62.5255L86.3424 60.1032C86.5067 59.9054 86.6625 59.7709 86.8457 59.5876C87.1441 59.2888 87.6328 58.9641 87.6328 58.4379C87.6328 57.4238 86.336 57.4186 85.1817 57.2254C84.7637 57.1554 82.3943 56.8799 82.114 56.531C82.0342 56.4317 81.8984 56.0931 81.8008 55.9265L80.1994 52.9392C79.8068 52.2817 79.9064 52 79.0001 52C78.3435 52 76.8924 55.2625 76.5293 55.952C76.0605 56.8424 76.1691 56.6901 74.7623 56.9332L71.6694 57.5C71.1494 57.5836 70.672 57.794 70.672 58.3358L70.6719 58.3358Z" fill="white"/>
<path fill-rule="evenodd" clip-rule="evenodd" d="M56.0469 63.4452C56.0469 64.1545 58.7891 66.4198 58.7891 66.7153C58.7891 68.8447 57.6295 71.4161 59.1954 71.4161C59.7747 71.4161 62.5984 69.7202 62.9327 69.7457C63.9552 69.8236 66.237 71.968 67.2118 71.2046C67.825 70.7243 67.424 69.7685 67.2486 68.4225C67.069 67.0439 66.8872 66.9313 67.3593 66.3472C67.7483 65.8658 69.8593 63.9641 69.8593 63.5474C69.8593 62.3283 68.4189 62.4473 66.7197 62.1079C65.2922 61.8228 65.631 62.3021 64.3737 59.8699C63.9547 59.0595 63.6662 58.1313 62.9531 58.1313C62.0774 58.1313 61.6508 59.6992 61.0038 60.7686C60.0829 62.2904 61.1285 61.7001 57.9853 62.33C57.1724 62.4929 56.0469 62.4461 56.0469 63.4452H56.0469Z" fill="white"/>
<path fill-rule="evenodd" clip-rule="evenodd" d="M92.6094 61.9124L88.7925 62.5682C87.9835 62.8371 88.014 63.4892 88.616 64.1932C91.1572 67.1655 91.2489 65.5592 90.5448 69.9549C90.1405 72.4791 92.5846 70.9201 93.2184 70.5981C95.5854 69.3957 94.8944 69.6193 96.8735 70.6C98.0456 71.1809 99.2505 71.949 99.6136 70.7982C99.7881 70.2452 99.1172 67.4097 99.214 66.8287C99.3179 66.2056 101.953 64.2241 101.953 63.4452C101.953 62.5278 101.098 62.5018 99.9355 62.3075L98.0448 61.9617C97.2797 61.8173 97.7167 62.0277 97.0091 60.7556C96.4023 59.6645 95.8469 58.1313 95.0469 58.1313C94.406 58.1313 94.0931 58.9198 93.6577 59.7993C93.358 60.4047 92.7281 61.3997 92.6094 61.9124H92.6094Z" fill="white"/>
<defs>
<filter id="filter0_d_98_60" x="0" y="0" width="157" height="157" filterUnits="userSpaceOnUse" color-interpolation-filters="sRGB">
<feFlood flood-opacity="0" result="BackgroundImageFix"/>
<feColorMatrix in="SourceAlpha" type="matrix" values="0 0 0 0 0 0 0 0 0 0 0 0 0 0 0 0 0 0 127 0" result="hardAlpha"/>
<feMorphology radius="7" operator="dilate" in="SourceAlpha" result="effect1_dropShadow_98_60"/>
<feOffset/>
<feGaussianBlur stdDeviation="12"/>
<feColorMatrix type="matrix" values="0 0 0 0 0.972549 0 0 0 0 0.972549 0 0 0 0 0.972549 0 0 0 0.3 0"/>
<feBlend mode="normal" in2="BackgroundImageFix" result="effect1_dropShadow_98_60"/>
<feBlend mode="normal" in="SourceGraphic" in2="effect1_dropShadow_98_60" result="shape"/>
</filter>
</defs>
</svg>
