<svg width="157" height="157" viewBox="0 0 157 157" fill="none" xmlns="http://www.w3.org/2000/svg">
<g filter="url(#filter0_d_98_58)">
<rect x="31" y="31" width="95" height="95" rx="20" fill="#13D4FF"/>
</g>
<path fill-rule="evenodd" clip-rule="evenodd" d="M46 70.2255C46 72.7144 47.7764 72.9043 49.5546 72.902H61.2344C62.1566 72.902 63.2797 72.7799 63.9447 73.1124C65.4575 73.8688 65.6978 77.1903 62.9984 77.4769C61.1814 77.6698 55.685 77.2908 54.5346 77.519C51.9081 78.0401 52.0163 82.1318 54.7713 82.4493L64.4091 82.46C66.3451 82.4488 67.2013 82.8898 67.2013 85.0099C67.2013 87.2264 65.0544 87.0491 62.8849 87.0491H50.1896C49.1465 87.0491 47.9431 86.9255 47.2712 87.3055C46.506 87.7384 46.0761 88.4974 46.0001 89.284V89.7891C46.0784 90.5954 46.535 91.3638 47.391 91.7702C48.3899 92.2445 55.9773 92.0196 57.4259 92.0196C59.6675 92.0196 61.9154 92.0363 64.1562 92.0178C65.44 92.0071 65.3966 92.0899 66.7178 92.8873L85.6387 103.865C85.8444 103.945 85.9903 104.113 85.9903 103.618V80.1667C85.9903 79.6437 83.9902 78.7173 83.6034 78.4845L65.2969 67.9314H48.2852C47.0948 67.9314 46 69.0305 46 70.2255V70.2255Z" fill="white"/>
<path fill-rule="evenodd" clip-rule="evenodd" d="M72.0254 54.2941C72.0254 58.9407 77.8652 55.6947 77.8652 57.6079C77.8652 58.0771 76.1114 58.8766 75.3815 59.3203C74.4358 59.8953 73.5696 60.3336 72.6349 60.8962C71.7039 61.4567 70.8484 61.9235 69.9072 62.4912C69.4305 62.7787 67.4737 63.6879 67.328 64.2352C68.0496 64.404 74.0894 68.0898 75.1158 68.6522C76.5763 69.4527 87.6545 76.0786 88.1315 76.0492L95.8859 71.6208C97.2446 70.8355 108.477 64.4803 108.842 63.9804C107.931 63.4965 107.158 63.0456 106.248 62.5052L88.0213 52H74.4373C73.2236 52 72.0252 53.0801 72.0252 54.2941H72.0254Z" fill="white"/>
<path fill-rule="evenodd" clip-rule="evenodd" d="M90.1797 79.7843V104C90.9819 103.574 91.6766 103.171 92.4583 102.719L110.462 92.2445C110.803 91.9706 110.946 91.5908 111 91.1377V89.2156V67.8038C108.107 69.3404 103.602 72.0635 100.596 73.8006L92.8688 78.278C92.4124 78.5554 92.0365 78.7639 91.5827 79.0261C91.2399 79.2243 90.5728 79.6788 90.1797 79.7842V79.7843Z" fill="white"/>
<path fill-rule="evenodd" clip-rule="evenodd" d="M48.666 54.1667C48.666 55.7845 49.5158 56.9706 50.9512 56.9706H66.4394C67.9986 56.9706 69.5347 54.3925 67.8687 52.7318C67.5068 52.3711 66.8697 52 66.1855 52H51.0781C49.7182 52 48.666 53.295 48.666 54.1667H48.666Z" fill="white"/>
<defs>
<filter id="filter0_d_98_58" x="0" y="0" width="157" height="157" filterUnits="userSpaceOnUse" color-interpolation-filters="sRGB">
<feFlood flood-opacity="0" result="BackgroundImageFix"/>
<feColorMatrix in="SourceAlpha" type="matrix" values="0 0 0 0 0 0 0 0 0 0 0 0 0 0 0 0 0 0 127 0" result="hardAlpha"/>
<feMorphology radius="7" operator="dilate" in="SourceAlpha" result="effect1_dropShadow_98_58"/>
<feOffset/>
<feGaussianBlur stdDeviation="12"/>
<feColorMatrix type="matrix" values="0 0 0 0 0.972549 0 0 0 0 0.972549 0 0 0 0 0.972549 0 0 0 0.3 0"/>
<feBlend mode="normal" in2="BackgroundImageFix" result="effect1_dropShadow_98_58"/>
<feBlend mode="normal" in="SourceGraphic" in2="effect1_dropShadow_98_58" result="shape"/>
</filter>
</defs>
</svg>
