<svg width="157" height="157" viewBox="0 0 157 157" fill="none" xmlns="http://www.w3.org/2000/svg">
<g filter="url(#filter0_d_98_56)">
<rect x="31" y="31" width="95" height="95" rx="20" fill="#13D4FF"/>
</g>
<path fill-rule="evenodd" clip-rule="evenodd" d="M45.0002 61.4051C45.0002 63.0528 45.4903 64.0177 46.9072 65.0178C52.7598 69.1487 67.8142 68.6813 71.411 63.8299C72.7662 62.002 72.076 59.922 70.2502 58.5352C69.3769 57.8718 68.1341 57.3574 66.9924 56.9759C61.7073 55.2093 51.417 55.2367 46.9054 58.4932C46.1867 59.012 45 60.2104 45 61.4053L45.0002 61.4051Z" fill="white"/>
<path fill-rule="evenodd" clip-rule="evenodd" d="M58.5489 73.8498C62.3994 73.8498 72.0719 72.6343 72.1022 67.9333C72.1083 66.9974 72.0976 66.0554 72.0976 65.1187H71.9973C71.9973 69.3378 62.8679 70.7388 59.2515 70.7388C55.6438 70.7388 53.0616 70.4984 49.9052 69.447C48.0596 68.8321 45.1008 67.4274 45.1008 65.1187H45.0003V68.0058C45.0725 68.6822 45.2651 69.2865 45.73 69.9086C46.4842 70.9181 47.7721 71.7122 49.0432 72.2157C51.7001 73.268 54.8988 73.8498 58.5491 73.8498H58.5489Z" fill="white"/>
<path fill-rule="evenodd" clip-rule="evenodd" d="M58.5489 91.9148C59.6082 91.9148 60.8628 91.8487 62.1739 91.694V88.62C57.9802 89.085 53.2656 88.7243 49.8789 87.5379C48.0612 86.901 45.1007 85.428 45.1007 83.1835H45.0002V86.0706C45.0724 86.747 45.265 87.3513 45.7299 87.9735C47.9951 91.0055 54.5537 91.9146 58.5489 91.9146V91.9148Z" fill="white"/>
<path fill-rule="evenodd" clip-rule="evenodd" d="M58.5489 85.893C59.6082 85.893 60.8627 85.8269 62.1739 85.6722V82.5899C56.5727 83.1824 49.8411 82.3959 46.8818 79.9967C46.1213 79.3801 45.1005 78.4828 45.1005 77.1615H45V80.0487C45.0722 80.725 45.2648 81.3294 45.7297 81.9516C46.4838 82.9611 47.7718 83.7552 49.0428 84.2587C51.6997 85.311 54.8985 85.8928 58.5487 85.8928L58.5489 85.893Z" fill="white"/>
<path fill-rule="evenodd" clip-rule="evenodd" d="M58.5489 97.9362C59.4863 97.9362 60.7694 97.8639 62.1739 97.687V94.6416C57.9801 95.1067 53.2656 94.7461 49.8789 93.5595C48.923 93.2245 47.6674 92.6773 46.8818 92.0402C46.1213 91.4237 45.1005 90.5264 45.1005 89.2051H45V92.0922C45.0722 92.7686 45.2648 93.3729 45.7297 93.9951C47.9949 97.0271 54.5535 97.9362 58.5487 97.9362H58.5489Z" fill="white"/>
<path fill-rule="evenodd" clip-rule="evenodd" d="M58.5489 79.8714C59.8039 79.8714 61.0161 79.8003 62.1739 79.6641V76.5921H70.7694C71.5409 75.8779 72.0955 74.9934 72.1021 73.955C72.1082 73.0191 72.0975 72.0771 72.0975 71.1401H71.9972C71.9972 73.1815 69.6867 74.4426 68.0806 75.1519C63.2542 77.2835 54.8539 77.2376 49.8791 75.4945C48.9232 75.1596 47.6676 74.6123 46.882 73.9753C46.1214 73.3588 45.1007 72.4615 45.1007 71.1401H45.0002V73.9956C45.0698 74.7006 45.2577 75.3354 45.7146 75.9454C46.4928 76.9838 47.7252 77.7131 49.0423 78.2379C51.4778 79.2085 55.1814 79.8714 58.5489 79.8714Z" fill="white"/>
<path fill-rule="evenodd" clip-rule="evenodd" d="M58.5489 103.958C59.4863 103.958 60.7694 103.886 62.1739 103.709V100.633C56.7123 101.226 49.975 100.57 46.8818 98.062C46.1213 97.4454 45.1005 96.5482 45.1005 95.2268H45V98.114C45.0722 98.7903 45.2648 99.3947 45.7297 100.017C46.4838 101.026 47.7718 101.82 49.0428 102.324C51.6997 103.376 54.8985 103.958 58.5487 103.958H58.5489Z" fill="white"/>
<path fill-rule="evenodd" clip-rule="evenodd" d="M92.8298 94.8505H98.7511V97.8613H92.8298V94.8505ZM83.5967 94.8505H89.5179V97.8613H83.5967V94.8505ZM74.4638 94.8505H80.2848V97.8613H74.4638V94.8505ZM65.2307 94.8505H71.1519V97.8613H65.2307V94.8505ZM65.331 81.5025H75.8689V90.8359H65.331V81.5025ZM60.4133 77.5884V101.675C60.4133 102.968 61.8295 104.385 63.1231 104.385H100.859C101.585 104.385 102.371 103.862 102.743 103.459C103.156 103.011 103.568 102.305 103.568 101.474V77.6887C103.568 76.3667 102.253 74.8787 100.658 74.8787H63.324C61.7426 74.8787 60.4134 76.3496 60.4134 77.5884H60.4133Z" fill="white"/>
<path fill-rule="evenodd" clip-rule="evenodd" d="M72.5583 72.3368L93.3317 71.9681C93.6449 71.9681 94.3269 71.1234 94.561 70.8892L98.174 67.2762C98.8912 66.5591 102.518 62.8346 102.966 62.5342C102.64 62.0469 96.4376 55.9554 95.4642 54.9821C94.3692 53.8871 93.8506 53 92.0269 53C90.6334 53 89.7776 54.0952 89.0412 54.8315L73.0839 70.7888C72.567 71.3057 71.8867 72.3366 72.5583 72.3366V72.3368Z" fill="white"/>
<path fill-rule="evenodd" clip-rule="evenodd" d="M104.949 73.7499C105.103 74.2595 106.094 74.9083 106.441 76.8233C106.683 78.1565 105.987 79.7741 107.106 78.6188L110.016 75.7068C111.112 74.6116 111.798 74.1226 111.798 72.4702C111.798 71.6734 111.412 70.9747 111.02 70.5381C110.704 70.1854 109.936 69.3904 109.59 69.1583L104.949 73.7501V73.7499Z" fill="white"/>
<path fill-rule="evenodd" clip-rule="evenodd" d="M97.8229 71.843C99.6027 71.8679 100.542 71.768 102.264 72.169L107.507 66.9751L105.097 64.6184L97.8229 71.843Z" fill="white"/>
<path fill-rule="evenodd" clip-rule="evenodd" d="M68.2415 84.714V87.8252H72.9585V84.413H68.5426C68.3114 84.413 68.2415 84.4828 68.2415 84.714Z" fill="white"/>
<defs>
<filter id="filter0_d_98_56" x="0" y="0" width="157" height="157" filterUnits="userSpaceOnUse" color-interpolation-filters="sRGB">
<feFlood flood-opacity="0" result="BackgroundImageFix"/>
<feColorMatrix in="SourceAlpha" type="matrix" values="0 0 0 0 0 0 0 0 0 0 0 0 0 0 0 0 0 0 127 0" result="hardAlpha"/>
<feMorphology radius="7" operator="dilate" in="SourceAlpha" result="effect1_dropShadow_98_56"/>
<feOffset/>
<feGaussianBlur stdDeviation="12"/>
<feColorMatrix type="matrix" values="0 0 0 0 0.972549 0 0 0 0 0.972549 0 0 0 0 0.972549 0 0 0 0.3 0"/>
<feBlend mode="normal" in2="BackgroundImageFix" result="effect1_dropShadow_98_56"/>
<feBlend mode="normal" in="SourceGraphic" in2="effect1_dropShadow_98_56" result="shape"/>
</filter>
</defs>
</svg>
