<svg width="25" height="25" viewBox="0 0 25 25" fill="none" xmlns="http://www.w3.org/2000/svg">
<rect width="25" height="25" rx="12.5" fill="#13D4FF"/>
<path fill-rule="evenodd" clip-rule="evenodd" d="M14.5909 7.76521C14.9968 7.3906 15.6294 7.4159 16.004 7.82172L19.2348 11.3217C19.5884 11.7047 19.5884 12.2952 19.2348 12.6782L16.004 16.1783C15.6294 16.5841 14.9968 16.6094 14.591 16.2348C14.1851 15.8602 14.1598 15.2276 14.5344 14.8217L16.216 13L6.5 13C5.94771 13 5.5 12.5523 5.5 12C5.5 11.4477 5.94771 11 6.5 11L16.216 11L14.5344 9.17829C14.1598 8.77247 14.1851 8.13981 14.5909 7.76521Z" fill="#FCFCFD"/>
</svg>
