<svg width="25" height="25" viewBox="0 0 25 25" fill="none" xmlns="http://www.w3.org/2000/svg">
<rect width="25" height="25" rx="12.5" transform="matrix(-1 0 0 1 25 0)" fill="#13D4FF"/>
<path fill-rule="evenodd" clip-rule="evenodd" d="M10.4091 7.76521C10.0032 7.3906 9.37058 7.4159 8.99597 7.82172L5.7652 11.3217C5.4116 11.7047 5.4116 12.2952 5.76519 12.6782L8.99597 16.1783C9.37057 16.5841 10.0032 16.6094 10.409 16.2348C10.8149 15.8602 10.8402 15.2276 10.4656 14.8217L8.78397 13L18.5 13C19.0523 13 19.5 12.5523 19.5 12C19.5 11.4477 19.0523 11 18.5 11L8.784 11L10.4656 9.17829C10.8402 8.77247 10.8149 8.13981 10.4091 7.76521Z" fill="#FCFCFD"/>
</svg>
