<svg width="42" height="38" viewBox="0 0 42 38" fill="none" xmlns="http://www.w3.org/2000/svg">
<path fill-rule="evenodd" clip-rule="evenodd" d="M13.5374 21.5821L7.58426 17.5046C7.14482 17.2155 6.80632 16.969 6.36925 16.6763C5.82806 16.3143 4.32246 15.1256 3.83194 15.1256C3.06865 15.1256 2.47005 15.9645 1.66242 16.7628C-0.403767 18.8048 -0.334089 18.4828 0.734043 20.0323L2.03338 21.7919C2.19886 22.011 2.2923 22.1667 2.45857 22.3862C2.78361 22.8155 3.03461 23.2017 3.35132 23.625L12.5662 37.0221C12.8675 37.4759 13.0053 37.9991 13.7238 37.9991C14.4681 37.9991 15.0347 36.6492 15.5727 35.768C16.4452 34.339 17.7525 32.1009 18.6888 30.7311L20.295 28.2601C20.5887 27.8164 20.8171 27.4369 21.0963 27.0229L28.6686 16.2451L35.0663 8.36432C36.7077 6.44626 38.1915 4.93592 40.0166 3.11139C40.6291 2.49864 42 1.57913 42 0.921392C42 0.483941 41.5444 -0.000854492 41.0669 -0.000854492H36.4943C35.9052 -0.000854492 33.611 1.71843 33.0539 2.1328C32.7642 2.34839 32.571 2.51703 32.2685 2.74006C31.9728 2.958 31.7566 3.11295 31.4763 3.34068L28.4291 5.86326C28.0993 6.11563 27.9916 6.27254 27.6824 6.50887C27.3447 6.76672 27.2418 6.88998 26.9536 7.17209C26.6764 7.44364 26.4876 7.53285 26.2037 7.81457L17.2976 16.9975L13.537 21.5814L13.5374 21.5821Z" fill="#13D4FF"/>
</svg>
