<svg width="40" height="40" viewBox="0 0 40 40" fill="none" xmlns="http://www.w3.org/2000/svg">
<g clip-path="url(#clip0_41_4393)">
<path fill-rule="evenodd" clip-rule="evenodd" d="M25.9375 29.8437C23.7879 29.8437 22.1094 28.1607 22.1094 25.8593C22.1094 23.8199 23.7942 22.1093 26.0937 22.1093C28.0964 22.1093 29.8437 23.8254 29.8437 25.9374C29.8437 28.1512 28.1512 29.8437 25.9374 29.8437H25.9375ZM40 18.9246V21.1999C39.867 23.4716 39.3331 25.755 38.3615 27.9709C37.8702 29.0914 37.3456 30.0789 36.6879 31.0629L35.3797 32.8015C35.2696 32.9378 35.2739 32.9601 35.1373 33.106L34.5908 33.7314C34.3802 33.9591 34.1864 34.1322 33.965 34.3556C33.8492 34.4725 33.775 34.5589 33.6489 34.6644C33.5035 34.7859 33.4872 34.7728 33.3407 34.9031L32.02 36.0043C29.4476 37.9338 25.9579 39.4796 22.7283 39.8376C22.4033 39.8736 21.9713 39.8941 21.6407 39.9649C17.7241 39.5293 14.3007 38.2249 11.3162 36.0274C10.1129 35.1414 8.63597 33.7204 7.70091 32.534C2.37159 25.7717 1.77413 16.3932 6.42915 9.24313C6.76044 8.73436 7.03463 8.31208 7.39538 7.86484C7.59773 7.61397 7.71171 7.46236 7.91855 7.21714C8.11362 6.98591 8.29092 6.78773 8.50014 6.54857C9.76347 5.10433 11.6634 3.51093 13.8125 2.40207C15.677 1.44001 18.6429 0.22078 21.0837 0.154177L21.6406 0.0633545C24.6643 0.285092 26.9913 1.11649 29.1404 2.18745C31.1454 3.18666 31.9226 3.90563 33.3825 5.13313C34.1049 5.74058 35.1243 6.81645 35.7045 7.57674C38.2618 10.9277 39.7625 14.8643 40 18.9246V18.9246ZM10.1562 14.1406C10.1562 11.8151 11.8152 10.1562 14.1406 10.1562C16.18 10.1562 17.8906 11.8411 17.8906 14.1406C17.8906 16.18 16.2057 17.8906 13.9063 17.8906C11.9052 17.8906 10.1563 16.1417 10.1563 14.1406H10.1562ZM10.1562 31.0937C9.2381 31.0937 8.90623 30.7618 8.90623 29.8437C8.90623 29.2552 10.8681 27.5304 11.3476 27.0507L28.3399 10.0585C29.1034 9.29492 29.212 8.90619 30.1562 8.90619C30.8875 8.90619 31.0937 9.56412 31.0937 10.1562C31.0937 10.7446 29.1319 12.4695 28.6523 12.9492L11.6601 29.9414C11.3311 30.2704 10.6994 31.0937 10.1562 31.0937Z" fill="#13D4FF"/>
<path fill-rule="evenodd" clip-rule="evenodd" d="M21.6406 39.9649C17.724 39.5293 14.3006 38.2249 11.3161 36.0274C10.1128 35.1413 8.63591 33.7204 7.70084 32.534C2.37153 25.7716 1.77406 16.3932 6.42908 9.24311C6.76038 8.73434 7.03457 8.31205 7.39532 7.86481C7.59767 7.61395 7.71164 7.46233 7.91849 7.21711C8.11355 6.98588 8.29086 6.78771 8.50008 6.54854C9.76341 5.1043 11.6633 3.5109 13.8125 2.40205C15.6769 1.43999 18.6428 0.220756 21.0837 0.154153L20.6475 0C18.0777 0 16.1265 0.178781 13.8958 0.927043C13.2161 1.155 12.6279 1.38026 12.02 1.6294C6.76005 3.78525 2.75077 8.42988 0.966973 13.7796C0.387427 15.5176 0.068976 17.3537 0 19.1995V20.7366C0.105141 23.5559 0.786637 26.3409 2.00521 28.7761C3.22223 31.2084 4.44449 32.8407 6.38515 34.7087L7.05461 35.2893C9.81676 37.6393 13.1654 39.1566 16.7967 39.7661C17.1644 39.8278 18.128 39.9352 19.1162 40.0002H21.4788C21.5392 39.9901 21.5937 39.9784 21.6407 39.9651L21.6406 39.9649Z" fill="#45F3FF"/>
<path fill-rule="evenodd" clip-rule="evenodd" d="M12.4219 13.9063C12.4219 16.2004 15.625 16.2349 15.625 13.9063C15.625 11.937 12.4219 11.9543 12.4219 13.9063Z" fill="#13D4FF"/>
<path fill-rule="evenodd" clip-rule="evenodd" d="M24.375 25.8595C24.375 28.1795 27.5781 28.1555 27.5781 25.8595C27.5781 23.908 24.375 23.8869 24.375 25.8595Z" fill="#13D4FF"/>
<path fill-rule="evenodd" clip-rule="evenodd" d="M21.0838 0.154153L21.6406 0.0633302C21.516 -0.000736399 21.7684 0.0426293 21.4791 0.00425474C21.4654 0.00245466 21.4497 0.00106369 21.4329 0H20.6723H20.6641H20.6558H20.6476L21.0838 0.154153Z" fill="#45F3FF"/>
</g>
<defs>
<clipPath id="clip0_41_4393">
<rect width="40" height="40" fill="white"/>
</clipPath>
</defs>
</svg>
