<svg width="27" height="22" viewBox="0 0 27 22" fill="none" xmlns="http://www.w3.org/2000/svg">
<g clip-path="url(#clip0_53_4167)">
<path fill-rule="evenodd" clip-rule="evenodd" d="M0.00012207 20.1436C0.0232236 20.6356 0.146746 21.0271 0.69741 21.5262C1.10687 21.8973 1.69172 22.0002 2.26784 22.0002H24.7326C25.296 22.0002 25.8625 21.9039 26.2757 21.551C26.8544 21.0568 26.9782 20.6248 27.0001 20.108V19.3787C27.0001 18.4587 26.0982 17.5796 25.1544 17.5796H1.84588C0.902023 17.5796 0.00012207 18.4587 0.00012207 19.3787V20.1436Z" fill="#13D4FF"/>
<path fill-rule="evenodd" clip-rule="evenodd" d="M10.6525 1.59372V7.71055H7.48855C7.1062 7.71055 6.75024 8.06716 6.75024 8.63585C6.75024 8.98488 7.23915 9.39502 7.44895 9.59952C7.60241 9.74911 7.7165 9.8617 7.87114 10.0106L9.13606 11.2962C9.22847 11.3984 9.22918 11.4244 9.32135 11.5266L9.98021 12.1696C10.2784 12.4598 10.496 12.7238 10.7975 13.0176L12.4827 14.7161C13.1001 15.436 13.6505 15.8402 14.5022 14.7524L19.5251 9.62503C20.0195 9.14319 20.2502 9.02026 20.2502 8.42997C20.2502 8.10898 19.8413 7.71032 19.5119 7.71032H16.348V1.59349C16.348 0.603388 15.7289 0 14.7132 0H12.2875C11.2718 0 10.6527 0.603388 10.6527 1.59349L10.6525 1.59372Z" fill="#13D4FF"/>
</g>
<defs>
<clipPath id="clip0_53_4167">
<rect width="27" height="22" fill="white"/>
</clipPath>
</defs>
</svg>
