<svg width="23" height="34" viewBox="0 0 23 34" fill="none" xmlns="http://www.w3.org/2000/svg">
<path fill-rule="evenodd" clip-rule="evenodd" d="M17.9685 12.2716C17.9685 11.1221 17.8495 10.2115 17.3814 9.26494C17.0562 8.60662 16.6428 7.97053 16.1233 7.45219C13.5637 4.89879 9.43096 4.89755 6.90884 7.41967C3.86592 10.4626 4.53618 15.7798 8.66724 17.8482C11.1523 19.0924 14.1969 18.4826 16.1224 16.5682C17.0154 15.6806 17.9681 14.028 17.9681 12.272L17.9685 12.2716ZM23 10.834C23 12.7846 22.8798 13.3198 22.2404 15.2363C21.9448 16.1232 21.191 18.0434 20.7788 18.8717L18.013 24.3388C17.8829 24.5994 17.7701 24.7657 17.6425 25.0136C16.6169 26.9996 14.9754 29.5279 13.8078 31.5029C13.1927 32.5437 12.758 33.4424 11.4347 33.4424C10.2482 33.4424 9.75539 32.4449 9.21605 31.5445C7.89941 29.3455 6.66759 27.3792 5.40241 25.0996L2.59127 19.6778C1.72628 17.9614 -9.53674e-06 13.739 -9.53674e-06 11.8801C-9.53674e-06 9.81951 0.221075 8.29578 1.11077 6.52215C1.27175 6.20101 1.39938 5.94493 1.58835 5.62792C1.85102 5.18698 2.38748 4.3718 2.72631 4.02185C3.29035 3.4397 3.44186 3.23755 4.09977 2.65087C4.64281 2.1667 5.9508 1.38981 6.62024 1.05468C9.66687 -0.471109 14.3793 -0.358301 17.2377 1.50344L18.4441 2.32273C18.5947 2.43513 18.7261 2.50347 18.8652 2.6204C20.6508 4.12231 22.009 6.19978 22.6076 8.48311C22.7855 9.16119 23 9.99037 23 10.8352V10.834Z" fill="white"/>
</svg>
