<svg width="10" height="14" viewBox="0 0 10 14" fill="none" xmlns="http://www.w3.org/2000/svg">
<path fill-rule="evenodd" clip-rule="evenodd" d="M2.14924 5.13727C2.14924 4.65606 2.20007 4.27482 2.40003 3.87858C2.53896 3.60299 2.71553 3.3367 2.93747 3.11971C4.03082 2.05078 5.79615 2.05026 6.8735 3.10609C8.17332 4.37995 7.88701 6.60589 6.12238 7.47179C5.06086 7.99264 3.76034 7.73739 2.93782 6.93595C2.55637 6.56435 2.14942 5.87253 2.14942 5.13744L2.14924 5.13727ZM0 4.53542C0 5.35202 0.0513525 5.57608 0.32447 6.37839C0.450741 6.74963 0.77275 7.55349 0.94879 7.90026L2.13025 10.1889C2.18582 10.298 2.23401 10.3677 2.28853 10.4714C2.72661 11.3029 3.42778 12.3613 3.92653 13.188C4.18927 13.6238 4.37499 14 4.94022 14C5.44706 14 5.65757 13.5824 5.88795 13.2055C6.45037 12.2849 6.97655 11.4618 7.51699 10.5074L8.71779 8.23773C9.08728 7.51919 9.82469 5.75154 9.82469 4.97336C9.82469 4.11074 9.73025 3.47286 9.3502 2.73037C9.28144 2.59593 9.22692 2.48873 9.1462 2.35601C9.034 2.17142 8.80484 1.83017 8.66011 1.68367C8.41917 1.43996 8.35446 1.35533 8.07342 1.10973C7.84146 0.907044 7.28274 0.581815 6.99678 0.441519C5.69538 -0.19722 3.68243 -0.149996 2.4614 0.629384L1.94612 0.972366C1.88175 1.01942 1.82565 1.04803 1.76621 1.09698C1.00348 1.72572 0.423306 2.59541 0.167599 3.55128C0.0916255 3.83515 0 4.18227 0 4.53593L0 4.53542Z" fill="white"/>
</svg>
