<svg width="35" height="39" viewBox="0 0 35 39" fill="none" xmlns="http://www.w3.org/2000/svg">
<path fill-rule="evenodd" clip-rule="evenodd" d="M17.0906 31.9585L17.0927 20.4577C16.7247 20.7025 16.5194 21.0567 16.1336 21.3753C15.7921 21.6577 15.5549 22.0147 15.2167 22.2888C14.3333 21.4873 13.4842 20.6333 12.5789 19.843C12.3414 19.636 12.1781 19.4193 11.9402 19.2109C11.4737 18.8019 10.2385 17.6022 9.9236 17.4078C10.1262 16.8503 10.8823 16.4827 11.3587 15.703C11.8037 15.8697 12.0063 16.241 12.3451 16.5569C12.671 16.8605 13.0019 17.0844 13.2932 17.4082L14.6674 18.7272C14.8361 18.885 14.984 18.9997 15.1424 19.1431L16.9992 17.311L17.0776 17.1385L17.0732 5.61681C16.0648 5.61715 10.412 5.47272 9.97254 5.70648L5.67644 8.67152C5.60936 11.5188 5.67199 14.4418 5.67097 17.2976C5.66994 20.6398 7.04174 22.8135 8.77736 25.068C10.2128 26.9323 12.5063 28.9876 14.4148 30.2886C15.0069 30.6921 16.4598 31.7466 17.0899 31.9585H17.0906Z" fill="#45F3FF"/>
<path fill-rule="evenodd" clip-rule="evenodd" d="M17.0779 17.1382L22.6254 11.482L24.2508 13.0177C23.9667 13.4308 22.9211 14.486 22.5158 14.88L18.9114 18.5367C18.5486 18.9201 17.424 20.1995 17.0858 20.3997L17.0927 20.4579L17.0906 31.9586C18.4816 31.2142 21.0294 29.4334 22.1219 28.4107L23.7665 26.8363C26.2119 24.3073 28.4565 21.3751 28.4558 17.3727C28.4551 14.4864 28.4976 11.5699 28.4527 8.68739C28.1129 8.51489 27.7042 8.18427 27.3852 7.96008L24.2155 5.73947C23.8257 5.48825 21.3645 5.61694 20.7415 5.61694C19.519 5.61694 18.2964 5.6166 17.0735 5.61694L17.0779 17.1386V17.1382Z" fill="#13D4FF"/>
<path fill-rule="evenodd" clip-rule="evenodd" d="M17.0728 3.36984H23.6614C24.8703 3.36949 24.6416 3.26339 25.4408 3.83634L30.7151 7.48283C30.8294 8.67596 30.7346 15.7708 30.7363 17.5971C30.7394 20.8732 29.4409 22.999 28.0845 25.1632C27.4335 26.2016 26.1199 27.7746 25.2197 28.5896C24.989 28.7987 24.8494 29.0304 24.6067 29.2481C23.1032 30.5939 22.1277 31.4218 20.338 32.6187L17.1916 34.5357C17.0215 34.7702 17.069 35.0248 17.0718 35.4181C17.0738 35.7426 17.0721 36.0677 17.0721 36.3922C17.0721 37.0209 17.0434 37.7188 17.0868 38.339C17.4736 38.2394 18.6712 37.5442 19.1199 37.3166C20.9702 36.3792 24.8853 33.6551 26.3773 32.2189C26.662 31.9448 26.8756 31.7035 27.1604 31.4297C27.3394 31.2572 27.4082 31.2476 27.5745 31.095L29.0343 29.4846C29.2177 29.2998 29.2485 29.2221 29.4104 29.0369C29.6654 28.7446 29.8745 28.4698 30.1121 28.1662C32.2827 25.3949 33.9519 21.7741 34.1446 18.1964C34.2497 16.2482 34.1443 13.9663 34.1443 11.9809C34.1443 9.90914 34.1443 7.83741 34.1443 5.76603L26.1976 0.234353C26.01 0.0899174 25.9967 0.027283 25.6992 0.000244141H17.0718L17.0725 3.36984H17.0728Z" fill="#09687D"/>
<path fill-rule="evenodd" clip-rule="evenodd" d="M17.0872 38.3387C17.0437 37.7185 17.0725 37.0207 17.0725 36.3919C17.0725 36.0675 17.0742 35.7423 17.0721 35.4178C17.0694 35.0246 17.0218 34.7699 17.1919 34.5355L17.0739 34.5478C16.0022 34.0354 14.7872 33.2564 13.861 32.6387C12.7952 31.9274 11.843 31.2138 10.9477 30.4605C7.51338 27.5697 3.42675 22.8201 3.42435 17.7467C3.42299 14.3772 3.4247 11.0076 3.4247 7.63797C3.48151 7.41071 5.81644 5.86846 6.0259 5.72642C6.93256 5.11069 7.77967 4.51275 8.66784 3.87648C9.4595 3.30935 9.23771 3.36891 10.4079 3.36959H17.0728L17.0721 0C15.1753 0 13.2781 0 11.3813 0H8.48234C8.08154 0.0509974 7.67528 0.442548 7.20227 0.762907C7.01539 0.889545 6.96029 0.947045 6.76965 1.07916L3.41477 3.41511C2.81992 3.80769 2.32534 4.19342 1.73699 4.58292L0 5.76613L0.0109525 18.1106C0.143751 19.2928 0.060923 19.5371 0.37341 20.8179C1.24276 24.3798 3.56674 28.0157 6.1587 30.6077C6.65978 31.1087 7.17489 31.6848 7.69444 32.142L8.54668 32.8622C11.8201 35.5041 11.7212 35.2885 14.9901 37.276C15.3362 37.4865 15.674 37.6309 16.0252 37.8137C16.3654 37.991 16.6686 38.2497 17.0872 38.3387Z" fill="#2D9EA6"/>
<path fill-rule="evenodd" clip-rule="evenodd" d="M17.0735 5.6166C18.2961 5.61625 19.5186 5.6166 20.7415 5.6166C21.3648 5.6166 23.826 5.4879 24.2155 5.73913L27.3852 7.95974C27.7039 8.18392 28.1129 8.51489 28.4528 8.68705C28.4979 11.5696 28.4555 14.486 28.4558 17.3723C28.4569 21.3748 26.2123 24.3073 23.7665 26.836L22.1219 28.4104C21.0294 29.4331 18.4816 31.2139 17.0906 31.9583L17.0735 34.5475L17.1916 34.5352L20.338 32.6182C22.1277 31.4213 23.1032 30.5937 24.6067 29.2475C24.8497 29.0302 24.989 28.7982 25.2197 28.589C26.1199 27.7741 27.4335 26.2011 28.0845 25.1626C29.4409 22.9985 30.7394 20.8727 30.7363 17.5965C30.7346 15.7702 30.8294 8.67575 30.7151 7.48228L25.4408 3.83579C24.6416 3.26284 24.8703 3.36895 23.6614 3.36929H17.0728L17.0732 5.61591L17.0735 5.6166Z" fill="#C6E1EC"/>
<path fill-rule="evenodd" clip-rule="evenodd" d="M17.0735 34.5478L17.0906 31.9586C16.4605 31.7467 15.0073 30.6922 14.4155 30.2887C12.507 28.9874 10.2135 26.9321 8.77807 25.0681C7.04211 22.8136 5.67031 20.6399 5.67168 17.2977C5.67271 14.4418 5.60973 11.5189 5.67716 8.67159L9.97326 5.70655C10.4127 5.47279 16.0656 5.61722 17.0739 5.61688L17.0735 3.37026H10.4086C9.23807 3.36957 9.45986 3.31002 8.66855 3.87715C7.78037 4.51342 6.93327 5.11101 6.02661 5.72709C5.81714 5.86913 3.48256 7.41137 3.4254 7.63864C3.4254 11.0082 3.42335 14.3778 3.42506 17.7474C3.42745 22.8208 7.51409 27.5704 10.9484 30.4612C11.8437 31.2148 12.7956 31.9281 13.8617 32.6393C14.7879 33.2571 16.0029 34.0361 17.0746 34.5485L17.0735 34.5478Z" fill="#EEF5FA"/>
<path fill-rule="evenodd" clip-rule="evenodd" d="M17.078 17.1382L16.9996 17.3107L17.0424 17.41C17.1214 17.7433 17.0595 19.9146 17.0855 20.3996C17.4236 20.1994 18.5483 18.92 18.9111 18.5367L22.5155 14.8799C22.9207 14.486 23.9664 13.4308 24.2504 13.0177L22.625 11.4819L17.0776 17.1382H17.078Z" fill="#C6E1EC"/>
<path fill-rule="evenodd" clip-rule="evenodd" d="M17.0927 20.4577L17.0859 20.3995C17.0598 19.9145 17.1218 17.7432 17.0427 17.4099L16.9999 17.3106L15.1432 19.1427C14.9844 18.9997 14.8368 18.8847 14.6681 18.7269L13.2939 17.4078C13.0026 17.084 12.6717 16.8602 12.3458 16.5566C12.007 16.2407 11.8044 15.8693 11.3594 15.7026C10.883 16.4823 10.1269 16.8499 9.92432 17.4075C10.2392 17.6015 11.4744 18.8015 11.9409 19.2105C12.1785 19.4189 12.3421 19.6353 12.5796 19.8427C13.4845 20.633 14.334 21.4869 15.2174 22.2885C15.5556 22.0143 15.7928 21.6574 16.1344 21.375C16.5201 21.0563 16.7258 20.7021 17.0934 20.4574L17.0927 20.4577Z" fill="#EEF5FA"/>
</svg>
