<svg width="35" height="35" viewBox="0 0 35 35" fill="none" xmlns="http://www.w3.org/2000/svg">
<rect width="35" height="35" rx="17.5" fill="#F1F3F5" fill-opacity="0.6"/>
<path fill-rule="evenodd" clip-rule="evenodd" d="M19.5909 12.7652C19.9968 12.3906 20.6294 12.4159 21.004 12.8217L24.2348 16.3217C24.5884 16.7047 24.5884 17.2952 24.2348 17.6782L21.004 21.1783C20.6294 21.5841 19.9968 21.6094 19.591 21.2348C19.1851 20.8602 19.1598 20.2276 19.5344 19.8217L21.216 18L11.5 18C10.9477 18 10.5 17.5523 10.5 17C10.5 16.4477 10.9477 16 11.5 16L21.216 16L19.5344 14.1783C19.1598 13.7725 19.1851 13.1398 19.5909 12.7652Z" fill="#FCFCFD"/>
</svg>
