<svg width="50" height="50" viewBox="0 0 50 50" fill="none" xmlns="http://www.w3.org/2000/svg">
<rect width="50" height="50" rx="25" fill="#13D4FF"/>
<path fill-rule="evenodd" clip-rule="evenodd" d="M27.0909 20.2652C27.4968 19.8906 28.1294 19.9159 28.504 20.3217L31.7348 23.8217C32.0884 24.2047 32.0884 24.7952 31.7348 25.1782L28.504 28.6783C28.1294 29.0841 27.4968 29.1094 27.091 28.7348C26.6851 28.3602 26.6598 27.7276 27.0344 27.3217L28.716 25.5L19 25.5C18.4477 25.5 18 25.0523 18 24.5C18 23.9477 18.4477 23.5 19 23.5L28.716 23.5L27.0344 21.6783C26.6598 21.2725 26.6851 20.6398 27.0909 20.2652Z" fill="#FCFCFD"/>
</svg>
