<svg width="35" height="35" viewBox="0 0 35 35" fill="none" xmlns="http://www.w3.org/2000/svg">
<rect width="35" height="35" rx="17.5" transform="matrix(-1 0 0 1 35 0)" fill="#F1F3F5" fill-opacity="0.6"/>
<path fill-rule="evenodd" clip-rule="evenodd" d="M15.4091 12.7652C15.0032 12.3906 14.3706 12.4159 13.996 12.8217L10.7652 16.3217C10.4116 16.7047 10.4116 17.2952 10.7652 17.6782L13.996 21.1783C14.3706 21.5841 15.0032 21.6094 15.409 21.2348C15.8149 20.8602 15.8402 20.2276 15.4656 19.8217L13.784 18L23.5 18C24.0523 18 24.5 17.5523 24.5 17C24.5 16.4477 24.0523 16 23.5 16L13.784 16L15.4656 14.1783C15.8402 13.7725 15.8149 13.1398 15.4091 12.7652Z" fill="#FCFCFD"/>
</svg>
