<svg width="50" height="50" viewBox="0 0 50 50" fill="none" xmlns="http://www.w3.org/2000/svg">
<rect width="50" height="50" rx="25" transform="matrix(-1 0 0 1 50 0)" fill="#13D4FF"/>
<path fill-rule="evenodd" clip-rule="evenodd" d="M22.9091 20.2652C22.5032 19.8906 21.8706 19.9159 21.496 20.3217L18.2652 23.8217C17.9116 24.2047 17.9116 24.7952 18.2652 25.1782L21.496 28.6783C21.8706 29.0841 22.5032 29.1094 22.909 28.7348C23.3149 28.3602 23.3402 27.7276 22.9656 27.3217L21.284 25.5L31 25.5C31.5523 25.5 32 25.0523 32 24.5C32 23.9477 31.5523 23.5 31 23.5L21.284 23.5L22.9656 21.6783C23.3402 21.2725 23.3149 20.6398 22.9091 20.2652Z" fill="#FCFCFD"/>
</svg>
