<svg width="26" height="26" viewBox="0 0 26 26" fill="none" xmlns="http://www.w3.org/2000/svg">
<path fill-rule="evenodd" clip-rule="evenodd" d="M0 5.65049C0 9.91644 2.80766 14.3258 5.39865 17.4027L7.90277 19.9854C8.05843 20.1225 8.10939 20.1298 8.26631 20.276C11.2387 23.042 16.1071 26.0001 20.3458 26.0001C22.577 26.0001 24.2742 25.1468 25.347 23.5166C26.3922 21.9283 26.1773 20.2561 24.7485 19.1984L23.3842 18.2374C23.0565 18.0154 22.8175 17.8349 22.4821 17.6136C21.1919 16.7621 20.7103 16.0434 19.1108 16.0434C18.3523 16.0434 17.5883 16.4901 17.2007 16.8947C16.9617 17.1443 16.8181 17.3957 16.6094 17.6842C16.3908 17.9865 16.2301 18.1909 16.0589 18.5144C15.8256 18.3911 15.679 18.2665 15.4483 18.1076C12.9871 16.4103 9.6444 13.0448 7.92109 10.5922C7.76694 10.373 7.61103 10.1776 7.48474 9.93854C7.80811 9.76753 8.01273 9.60656 8.31476 9.38784C9.3499 8.63877 9.95522 8.19304 9.95522 6.52262C9.95522 5.64999 9.4325 4.99458 9.04134 4.45694C8.91832 4.28769 8.86836 4.19352 8.74961 4.02176C8.61504 3.82715 8.54399 3.75282 8.41418 3.55795C7.73556 2.53943 6.63891 0.752239 5.65599 0.284662C3.93745 -0.532969 2.31155 0.548835 1.21892 1.78181C0.403461 2.7019 0.00050213 4.35574 0.00050213 5.65075L0 5.65049Z" fill="#13D4FF"/>
</svg>
